<svg width="35" height="34" viewBox="0 0 35 34" fill="none" xmlns="http://www.w3.org/2000/svg">
<path d="M23.1666 31.1666H25.9999C26.7514 31.1666 27.472 30.8681 28.0034 30.3368C28.5347 29.8054 28.8333 29.0848 28.8333 28.3333V9.91665L21.7499 2.83331H8.99992C8.24847 2.83331 7.5278 3.13182 6.99645 3.66318C6.4651 4.19453 6.16659 4.9152 6.16659 5.66665V9.91665M20.3333 2.83331V8.49998C20.3333 9.25143 20.6318 9.9721 21.1631 10.5034C21.6945 11.0348 22.4151 11.3333 23.1666 11.3333H28.8333M13.9583 24.7916L11.8333 23.0208V19.8333M20.3333 22.6666C20.3333 27.3611 16.5277 31.1666 11.8333 31.1666C7.13883 31.1666 3.33325 27.3611 3.33325 22.6666C3.33325 17.9722 7.13883 14.1666 11.8333 14.1666C16.5277 14.1666 20.3333 17.9722 20.3333 22.6666Z" stroke="#6C3AAC" stroke-width="2.5" stroke-linecap="round" stroke-linejoin="round"/>
</svg>
